<svg width="32" height="32" viewBox="0 0 32 32" fill="none" xmlns="http://www.w3.org/2000/svg">
    <path fill-rule="evenodd" clip-rule="evenodd" d="M22 5H25C25.53 5.00153 26.0378 5.21274 26.4125 5.58748C26.7873 5.96222 26.9985 6.47004 27 7V17H25V7H22V10H10V7H7V28H16V30H7C6.47004 29.9985 5.96222 29.7873 5.58748 29.4125C5.21274 29.0378 5.00153 28.53 5 28V7C5.00153 6.47004 5.21274 5.96222 5.58748 5.58748C5.96222 5.21274 6.47004 5.00153 7 5H10V4C10.0015 3.47004 10.2127 2.96222 10.5875 2.58748C10.9622 2.21274 11.47 2.00153 12 2H20C20.53 2.00153 21.0378 2.21274 21.4125 2.58748C21.7873 2.96222 21.9985 3.47004 22 4V5ZM12 8H20V4H12V8ZM30 21.41L26.41 25L30 28.59L28.59 30L25 26.41L21.41 30L20 28.59L23.59 25L20 21.41L21.41 20L25 23.59L28.59 20L30 21.41Z" fill="#000000"/>
</svg>